<svg id="Layer_1" data-name="Layer 1" xmlns="http://www.w3.org/2000/svg" width="168.32" height="64.23" viewBox="0 0 168.32 64.23"><title>jrand</title><path d="M89.77,65.09a8.82,8.82,0,0,1-1.87,2.77,9,9,0,0,1-2.79,1.89,8.4,8.4,0,0,1-3.4.7V67a5,5,0,0,0,2-.41,5.15,5.15,0,0,0,2.74-2.74,5,5,0,0,0,.41-2V28.8h3.57V61.7A8.45,8.45,0,0,1,89.77,65.09ZM86.59,21.66V16.9h4.15v4.76Z" transform="translate(0 -11.56)" fill="#165b8e"/><path d="M102.18,32.2a5.05,5.05,0,0,0-2,.41,5.15,5.15,0,0,0-2.74,2.74,5,5,0,0,0-.41,2V58.54H93.44V28.8h1.19l1.95,3a8.93,8.93,0,0,1,3.06-2.63,8.48,8.48,0,0,1,4-1h2.09v4Z" transform="translate(0 -11.56)" fill="#165b8e"/><path d="M123.83,58.54l-2-3a9.24,9.24,0,0,1-3,2.57,8.4,8.4,0,0,1-4,1h-.9a8.56,8.56,0,0,1-3.4-.68,8.72,8.72,0,0,1-4.66-4.66,8.55,8.55,0,0,1-.68-3.4v-.29a8.55,8.55,0,0,1,.68-3.4A8.72,8.72,0,0,1,110.5,42a8.56,8.56,0,0,1,3.4-.68h7.55V36.76a5.06,5.06,0,0,0-.41-2A5.15,5.15,0,0,0,118.3,32a5.06,5.06,0,0,0-2-.41h-2.09a5.05,5.05,0,0,0-2,.41,5.15,5.15,0,0,0-2.74,2.74,5,5,0,0,0-.41,2v1.07l-3.57-.58V37a8.55,8.55,0,0,1,.68-3.4,8.72,8.72,0,0,1,4.66-4.66,8.56,8.56,0,0,1,3.4-.68h2.09a8.56,8.56,0,0,1,3.4.68,8.72,8.72,0,0,1,4.66,4.66A8.56,8.56,0,0,1,125,37V58.54Zm-2.38-14.4H113.9a5,5,0,0,0-2,.41,5.1,5.1,0,0,0-1.64,1.12,5.39,5.39,0,0,0-1.1,1.65,5,5,0,0,0-.41,2v1.25a5,5,0,0,0,.41,2,5.15,5.15,0,0,0,2.74,2.74,5,5,0,0,0,2,.41h2.38a5,5,0,0,0,2-.41A5.15,5.15,0,0,0,121,52.6a5.05,5.05,0,0,0,.41-2Z" transform="translate(0 -11.56)" fill="#165b8e"/><path d="M143.1,58.54V36.76a5.06,5.06,0,0,0-.41-2A5.15,5.15,0,0,0,140,32a5.06,5.06,0,0,0-2-.41h-2.38a5.05,5.05,0,0,0-2,.41,5.15,5.15,0,0,0-2.74,2.74,5,5,0,0,0-.41,2V58.54h-3.57V28.8H128l1.95,3A8.93,8.93,0,0,1,133,29.2a8.48,8.48,0,0,1,4-1h.9a8.56,8.56,0,0,1,3.4.68A8.72,8.72,0,0,1,146,33.57a8.56,8.56,0,0,1,.68,3.4V58.54Z" transform="translate(0 -11.56)" fill="#165b8e"/><path d="M167.13,58.54l-2-3a9,9,0,0,1-3,2.63,8.4,8.4,0,0,1-4,1h-.9a8.56,8.56,0,0,1-3.4-.68,8.72,8.72,0,0,1-4.66-4.66,8.55,8.55,0,0,1-.68-3.4V37a8.55,8.55,0,0,1,.68-3.4,8.72,8.72,0,0,1,4.66-4.66,8.56,8.56,0,0,1,3.4-.68h.9a8.56,8.56,0,0,1,6.65,3.08V16.9h3.57V58.54Zm-2.38-21.78a5.06,5.06,0,0,0-.41-2A5.15,5.15,0,0,0,161.6,32a5.06,5.06,0,0,0-2-.41H157.2a5.05,5.05,0,0,0-2,.41,5.15,5.15,0,0,0-2.74,2.74,5,5,0,0,0-.41,2V50.58a5,5,0,0,0,.41,2,5.15,5.15,0,0,0,2.74,2.74,5,5,0,0,0,2,.41h2.38a5,5,0,0,0,2-.41,5.15,5.15,0,0,0,2.74-2.74,5.05,5.05,0,0,0,.41-2Z" transform="translate(0 -11.56)" fill="#165b8e"/><path d="M62.37,75.79H8a5,5,0,0,1-4.93-4.93,121.3,121.3,0,0,1,0-54.36A5,5,0,0,1,8,11.56H62.37a5,5,0,0,1,4.93,4.93,103.79,103.79,0,0,1,0,54.36A5,5,0,0,1,62.37,75.79Z" transform="translate(0 -11.56)" fill="#1d79dd"/><circle cx="23.72" cy="33.67" r="5.55" fill="#fff"/><circle cx="23.72" cy="52.53" r="5.55" fill="#fff"/><circle cx="46.28" cy="52.53" r="5.55" fill="#fff"/><circle cx="46.28" cy="33.67" r="5.55" fill="#fff"/><circle cx="46.28" cy="14.82" r="5.55" fill="#fff"/><path d="M28.37,23.35A5.55,5.55,0,1,0,20.69,31,9.57,9.57,0,0,1,28.37,23.35Z" transform="translate(0 -11.56)" fill="#fff"/><path d="M29.27,26.38a5.52,5.52,0,0,0-.9-3A9.57,9.57,0,0,0,20.69,31a5.55,5.55,0,0,0,8.58-4.65Z" transform="translate(0 -11.56)" fill="#efefef"/><path d="M50.93,23.35A5.55,5.55,0,1,0,43.25,31,9.57,9.57,0,0,1,50.93,23.35Z" transform="translate(0 -11.56)" fill="#fff"/><path d="M51.83,26.38a5.52,5.52,0,0,0-.9-3A9.57,9.57,0,0,0,43.25,31a5.55,5.55,0,0,0,8.58-4.65Z" transform="translate(0 -11.56)" fill="#efefef"/><path d="M28.37,42.2a5.55,5.55,0,1,0-7.68,7.68A9.57,9.57,0,0,1,28.37,42.2Z" transform="translate(0 -11.56)" fill="#fff"/><path d="M29.27,45.23a5.52,5.52,0,0,0-.9-3,9.57,9.57,0,0,0-7.68,7.68,5.55,5.55,0,0,0,8.58-4.65Z" transform="translate(0 -11.56)" fill="#efefef"/><path d="M50.93,42.2a5.55,5.55,0,1,0-7.68,7.68A9.57,9.57,0,0,1,50.93,42.2Z" transform="translate(0 -11.56)" fill="#fff"/><path d="M51.83,45.23a5.52,5.52,0,0,0-.9-3,9.57,9.57,0,0,0-7.68,7.68,5.55,5.55,0,0,0,8.58-4.65Z" transform="translate(0 -11.56)" fill="#efefef"/><path d="M28.37,61.06a5.55,5.55,0,1,0-7.68,7.68A9.57,9.57,0,0,1,28.37,61.06Z" transform="translate(0 -11.56)" fill="#fff"/><path d="M29.27,64.09a5.52,5.52,0,0,0-.9-3,9.57,9.57,0,0,0-7.68,7.68,5.55,5.55,0,0,0,8.58-4.65Z" transform="translate(0 -11.56)" fill="#efefef"/><path d="M50.93,61.06a5.55,5.55,0,1,0-7.68,7.68A9.57,9.57,0,0,1,50.93,61.06Z" transform="translate(0 -11.56)" fill="#fff"/><path d="M51.83,64.09a5.52,5.52,0,0,0-.9-3,9.57,9.57,0,0,0-7.68,7.68,5.55,5.55,0,0,0,8.58-4.65Z" transform="translate(0 -11.56)" fill="#efefef"/><path d="M54.89,0" transform="translate(0 -11.56)" fill="#fff"/><path d="M3.48,72.82a4.88,4.88,0,0,0,4.48,3h53.6a4.88,4.88,0,0,0,4.87-4.87,102.35,102.35,0,0,0,0-53.6c-1.24-4.65-3.29-6.16-7.37-5.67,6.19-.75,3.78,47.35,1.16,52.9a11.23,11.23,0,0,1-9.11,6.81c-4.92.51-9.9.64-14.85.82-10.85.38-21.7.55-32.56.65Z" transform="translate(0 -11.56)" fill="#1e7bc1"/><path d="M62.37,75.79H8a5,5,0,0,1-4.93-4.93,121.3,121.3,0,0,1,0-54.36A5,5,0,0,1,8,11.56H62.37a5,5,0,0,1,4.93,4.93,103.79,103.79,0,0,1,0,54.36A5,5,0,0,1,62.37,75.79Z" transform="translate(0 -11.56)" fill="none"/></svg>
