<svg id="Layer_1" data-name="Layer 1" xmlns="http://www.w3.org/2000/svg" width="168.32" height="90.29" viewBox="0 0 168.32 90.29"><defs><style>.cls-1{font-size:59.47px;fill:#165b8e;font-family:Abel-Regular, Abel;letter-spacing:-0.09em;}.cls-2{fill:#1d79dd;}.cls-3{fill:#fff;}.cls-4{fill:#efefef;}.cls-5{fill:#1e7bc1;}.cls-6{fill:none;}</style></defs><title>logojrand</title><text y="-7.98"></text><text class="cls-1" transform="translate(82.12 50.55)">jrand</text><path class="cls-2" d="M62.37,75.79H8a5,5,0,0,1-4.93-4.93,121.3,121.3,0,0,1,0-54.36A5,5,0,0,1,8,11.56H62.37a5,5,0,0,1,4.93,4.93,103.79,103.79,0,0,1,0,54.36A5,5,0,0,1,62.37,75.79Z" transform="translate(0 -7.98)"/><circle class="cls-3" cx="23.72" cy="37.25" r="5.55"/><circle class="cls-3" cx="23.72" cy="56.1" r="5.55"/><circle class="cls-3" cx="46.28" cy="56.1" r="5.55"/><circle class="cls-3" cx="46.28" cy="37.25" r="5.55"/><circle class="cls-3" cx="46.28" cy="18.39" r="5.55"/><path class="cls-3" d="M28.37,23.35A5.55,5.55,0,1,0,20.69,31,9.57,9.57,0,0,1,28.37,23.35Z" transform="translate(0 -7.98)"/><path class="cls-4" d="M29.27,26.38a5.52,5.52,0,0,0-.9-3A9.57,9.57,0,0,0,20.69,31a5.55,5.55,0,0,0,8.58-4.65Z" transform="translate(0 -7.98)"/><path class="cls-3" d="M50.93,23.35A5.55,5.55,0,1,0,43.25,31,9.57,9.57,0,0,1,50.93,23.35Z" transform="translate(0 -7.98)"/><path class="cls-4" d="M51.83,26.38a5.52,5.52,0,0,0-.9-3A9.57,9.57,0,0,0,43.25,31a5.55,5.55,0,0,0,8.58-4.65Z" transform="translate(0 -7.98)"/><path class="cls-3" d="M28.37,42.2a5.55,5.55,0,1,0-7.68,7.68A9.57,9.57,0,0,1,28.37,42.2Z" transform="translate(0 -7.98)"/><path class="cls-4" d="M29.27,45.23a5.52,5.52,0,0,0-.9-3,9.57,9.57,0,0,0-7.68,7.68,5.55,5.55,0,0,0,8.58-4.65Z" transform="translate(0 -7.98)"/><path class="cls-3" d="M50.93,42.2a5.55,5.55,0,1,0-7.68,7.68A9.57,9.57,0,0,1,50.93,42.2Z" transform="translate(0 -7.98)"/><path class="cls-4" d="M51.83,45.23a5.52,5.52,0,0,0-.9-3,9.57,9.57,0,0,0-7.68,7.68,5.55,5.55,0,0,0,8.58-4.65Z" transform="translate(0 -7.98)"/><path class="cls-3" d="M28.37,61.06a5.55,5.55,0,1,0-7.68,7.68A9.57,9.57,0,0,1,28.37,61.06Z" transform="translate(0 -7.98)"/><path class="cls-4" d="M29.27,64.09a5.52,5.52,0,0,0-.9-3,9.57,9.57,0,0,0-7.68,7.68,5.55,5.55,0,0,0,8.58-4.65Z" transform="translate(0 -7.98)"/><path class="cls-3" d="M50.93,61.06a5.55,5.55,0,1,0-7.68,7.68A9.57,9.57,0,0,1,50.93,61.06Z" transform="translate(0 -7.98)"/><path class="cls-4" d="M51.83,64.09a5.52,5.52,0,0,0-.9-3,9.57,9.57,0,0,0-7.68,7.68,5.55,5.55,0,0,0,8.58-4.65Z" transform="translate(0 -7.98)"/><path class="cls-3" d="M54.89,0" transform="translate(0 -7.98)"/><path class="cls-5" d="M3.48,72.82a4.88,4.88,0,0,0,4.48,3h53.6a4.88,4.88,0,0,0,4.87-4.87,102.35,102.35,0,0,0,0-53.6c-1.24-4.65-3.29-6.16-7.37-5.67,6.19-.75,3.78,47.35,1.16,52.9a11.23,11.23,0,0,1-9.11,6.81c-4.92.51-9.9.64-14.85.82-10.85.38-21.7.55-32.56.65Z" transform="translate(0 -7.98)"/><path class="cls-6" d="M62.37,75.79H8a5,5,0,0,1-4.93-4.93,121.3,121.3,0,0,1,0-54.36A5,5,0,0,1,8,11.56H62.37a5,5,0,0,1,4.93,4.93,103.79,103.79,0,0,1,0,54.36A5,5,0,0,1,62.37,75.79Z" transform="translate(0 -7.98)"/></svg>