<svg id="Layer_1" data-name="Layer 1" xmlns="http://www.w3.org/2000/svg" width="70.93" height="64.23" viewBox="0 0 70.93 64.23"><defs><style>.cls-1{fill:#1d79dd;}.cls-2{fill:#fff;}.cls-3{fill:#efefef;}.cls-4{fill:#1e7bc1;}.cls-5{fill:none;}</style></defs><title>logoonly</title><path class="cls-1" d="M62.37,70.4H8a5,5,0,0,1-4.93-4.93,121.3,121.3,0,0,1,0-54.36A5,5,0,0,1,8,6.18H62.37a5,5,0,0,1,4.93,4.93,103.79,103.79,0,0,1,0,54.36A5,5,0,0,1,62.37,70.4Z" transform="translate(0 -6.18)"/><circle class="cls-2" cx="23.72" cy="33.67" r="5.55"/><circle class="cls-2" cx="23.72" cy="52.53" r="5.55"/><circle class="cls-2" cx="46.28" cy="52.53" r="5.55"/><circle class="cls-2" cx="46.28" cy="33.67" r="5.55"/><circle class="cls-2" cx="46.28" cy="14.82" r="5.55"/><path class="cls-2" d="M28.37,18a5.55,5.55,0,1,0-7.68,7.68A9.57,9.57,0,0,1,28.37,18Z" transform="translate(0 -6.18)"/><path class="cls-3" d="M29.27,21a5.52,5.52,0,0,0-.9-3,9.57,9.57,0,0,0-7.68,7.68A5.55,5.55,0,0,0,29.27,21Z" transform="translate(0 -6.18)"/><path class="cls-2" d="M50.93,18a5.55,5.55,0,1,0-7.68,7.68A9.57,9.57,0,0,1,50.93,18Z" transform="translate(0 -6.18)"/><path class="cls-3" d="M51.83,21a5.52,5.52,0,0,0-.9-3,9.57,9.57,0,0,0-7.68,7.68A5.55,5.55,0,0,0,51.83,21Z" transform="translate(0 -6.18)"/><path class="cls-2" d="M28.37,36.82a5.55,5.55,0,1,0-7.68,7.68A9.57,9.57,0,0,1,28.37,36.82Z" transform="translate(0 -6.18)"/><path class="cls-3" d="M29.27,39.85a5.52,5.52,0,0,0-.9-3,9.57,9.57,0,0,0-7.68,7.68,5.55,5.55,0,0,0,8.58-4.65Z" transform="translate(0 -6.18)"/><path class="cls-2" d="M50.93,36.82a5.55,5.55,0,1,0-7.68,7.68A9.57,9.57,0,0,1,50.93,36.82Z" transform="translate(0 -6.18)"/><path class="cls-3" d="M51.83,39.85a5.52,5.52,0,0,0-.9-3,9.57,9.57,0,0,0-7.68,7.68,5.55,5.55,0,0,0,8.58-4.65Z" transform="translate(0 -6.18)"/><path class="cls-2" d="M28.37,55.68a5.55,5.55,0,1,0-7.68,7.68A9.57,9.57,0,0,1,28.37,55.68Z" transform="translate(0 -6.18)"/><path class="cls-3" d="M29.27,58.71a5.52,5.52,0,0,0-.9-3,9.57,9.57,0,0,0-7.68,7.68,5.55,5.55,0,0,0,8.58-4.65Z" transform="translate(0 -6.18)"/><path class="cls-2" d="M50.93,55.68a5.55,5.55,0,1,0-7.68,7.68A9.57,9.57,0,0,1,50.93,55.68Z" transform="translate(0 -6.18)"/><path class="cls-3" d="M51.83,58.71a5.52,5.52,0,0,0-.9-3,9.57,9.57,0,0,0-7.68,7.68,5.55,5.55,0,0,0,8.58-4.65Z" transform="translate(0 -6.18)"/><path class="cls-2" d="M54.89-5.38" transform="translate(0 -6.18)"/><path class="cls-4" d="M3.48,67.44A4.88,4.88,0,0,0,8,70.4h53.6a4.88,4.88,0,0,0,4.87-4.87,102.35,102.35,0,0,0,0-53.6c-1.24-4.65-3.29-6.16-7.37-5.67,6.19-.75,3.78,47.35,1.16,52.9A11.23,11.23,0,0,1,51.1,66c-4.92.51-9.9.64-14.85.82-10.85.38-21.7.55-32.56.65Z" transform="translate(0 -6.18)"/><path class="cls-5" d="M62.37,70.4H8a5,5,0,0,1-4.93-4.93,121.3,121.3,0,0,1,0-54.36A5,5,0,0,1,8,6.18H62.37a5,5,0,0,1,4.93,4.93,103.79,103.79,0,0,1,0,54.36A5,5,0,0,1,62.37,70.4Z" transform="translate(0 -6.18)"/></svg>